<?xml version="1.0" standalone="no"?>
<!DOCTYPE svg PUBLIC "-//W3C//DTD SVG 20010904//EN"
 "http://www.w3.org/TR/2001/REC-SVG-20010904/DTD/svg10.dtd">
<svg version="1.0" xmlns="http://www.w3.org/2000/svg"
 width="240.000000pt" height="240.000000pt" viewBox="0 0 240.000000 240.000000"
 preserveAspectRatio="xMidYMid meet">
<metadata>
Created by potrace 1.11, written by Peter Selinger 2001-2013
</metadata>
<g transform="translate(0.000000,240.000000) scale(0.100000,-0.100000)"
fill="#000000" stroke="none">
<path d="M572 2269 c-173 -29 -332 -135 -435 -292 -134 -202 -155 -480 -56
-739 38 -98 163 -286 274 -411 l86 -97 40 22 c55 31 142 117 175 173 14 25 39
84 54 130 31 91 55 135 75 135 22 0 50 -49 79 -136 61 -186 165 -288 354 -349
46 -15 95 -38 110 -51 l27 -24 -28 -25 c-15 -13 -60 -34 -100 -46 -39 -12 -92
-32 -117 -44 -60 -30 -146 -108 -181 -164 l-28 -43 67 -59 c121 -107 222 -140
304 -100 72 35 649 530 745 639 190 216 307 436 353 662 39 188 14 399 -67
552 -94 179 -253 268 -478 268 -124 0 -205 -19 -314 -72 -68 -32 -102 -57
-167 -123 l-82 -82 -79 76 c-124 119 -243 181 -386 200 -90 13 -149 12 -225 0z
m-155 -241 c26 -73 85 -133 157 -161 33 -12 61 -28 63 -33 2 -6 -11 -17 -29
-24 -87 -32 -112 -47 -144 -83 -18 -22 -41 -64 -49 -94 -10 -33 -21 -53 -28
-50 -7 2 -21 28 -31 57 -25 69 -86 132 -151 155 -27 10 -56 24 -64 31 -12 11
-10 15 13 24 15 5 33 10 40 10 25 0 106 60 130 97 13 21 30 57 37 81 7 23 18
42 25 42 7 0 21 -23 31 -52z m1302 -61 c14 -41 56 -83 99 -98 18 -6 32 -14 32
-18 0 -4 -23 -17 -50 -28 -45 -19 -53 -28 -77 -78 l-26 -57 -26 53 c-22 46
-34 58 -78 79 -29 14 -53 28 -53 31 0 3 18 11 39 18 42 12 101 70 101 100 0
42 25 41 39 -2z m331 -180 c28 -78 103 -155 170 -176 103 -32 117 -62 39 -85
-115 -35 -185 -100 -215 -202 -27 -92 -48 -91 -78 3 -34 102 -91 156 -218 203
-67 25 -68 42 -4 60 112 31 189 102 222 203 31 97 47 95 84 -6z"/>
</g>
</svg>
