<svg height='100px' width='100px' fill="#FFFFFF" 
  xmlns="http://www.w3.org/2000/svg" 
  xmlns:xlink="http://www.w3.org/1999/xlink" version="1.1" x="0px" y="0px" viewBox="0 0 100 100" enable-background="new 0 0 100 100" xml:space="preserve">
  <g>
    <path d="M50.8589973,68.8869095c-10.4141502,0-18.8864994-8.4723511-18.8864994-18.8865013   s8.4723492-18.8873196,18.8864994-18.8873196c1.9254227,0,3.827095,0.2899189,5.651783,0.8615665   c0.9360924,0.2931938,1.5437775,1.1973495,1.4618797,2.1752129c-0.0810776,0.9778595-0.8304443,1.768177-1.8017578,1.9024887   c-5.4625969,0.7551003-9.5812492,5.4888039-9.5812492,11.0103683c0,6.1300659,4.9875908,11.1176567,11.1184769,11.1176567   c2.5388374,0,4.9310799-0.8361778,6.9162903-2.4168091c0.7673798-0.6117783,1.8566208-0.6085052,2.6207352,0.0065498   c0.7649231,0.6150551,0.9999695,1.678093,0.5667343,2.5584946C64.6072159,64.8411484,58.1110687,68.8869095,50.8589973,68.8869095z    M47.4667816,35.7010155c-6.4715805,1.5355873-11.3011055,7.3642693-11.3011055,14.2993927   c0,8.102169,6.5911522,14.693325,14.6933212,14.693325c2.9229393,0,5.6878166-0.8451881,8.0210915-2.3635788   c-0.388195,0.0286636-0.7788506,0.0434074-1.1719589,0.0434074c-8.4428673,0-15.3116531-6.8687897-15.3116531-15.3108368   C42.3964767,42.6091118,44.3423729,38.5281334,47.4667816,35.7010155z"></path>
  </g>
</svg>
