<svg height='100px' width='100px' fill="#000000" 
  xmlns="http://www.w3.org/2000/svg" 
  xmlns:xlink="http://www.w3.org/1999/xlink" version="1.1" x="0px" y="0px" viewBox="0 0 100 100" enable-background="new 0 0 100 100" xml:space="preserve">
  <g>
    <g>
      <path d="M50.0012283,64.081543c-7.7647514,0-14.0823631-6.3176117-14.0823631-14.0823631    s6.3176117-14.0823631,14.0823631-14.0823631s14.0823669,6.3176117,14.0823669,14.0823631    S57.7659798,64.081543,50.0012283,64.081543z M50.0012283,40.109993c-5.4527702,0-9.8891869,4.4364166-9.8891869,9.8891869    s4.4364166,9.8891869,9.8891869,9.8891869s9.8891869-4.4364166,9.8891869-9.8891869S55.4539986,40.109993,50.0012283,40.109993z"></path>
    </g>
    <g>
      <path d="M50.0012283,32.6318855c-1.1580391,0-2.0965881-0.9385509-2.0965881-2.0965881v-5.1366425    c0-1.1580391,0.938549-2.09659,2.0965881-2.09659s2.0965881,0.9385509,2.0965881,2.09659v5.1366425    C52.0978165,31.6933346,51.1592674,32.6318855,50.0012283,32.6318855z"></path>
    </g>
    <g>
      <path d="M63.7641907,38.3336258c-0.5364342,0-1.0728645-0.2047462-1.4823532-0.6142349    c-0.8189812-0.818161-0.8189812-2.1457291,0-2.9647064l3.6321716-3.6329975c0.8173447-0.8189793,2.1457291-0.8189793,2.9647141,0    c0.8189774,0.818161,0.8189774,2.1457272,0,2.9647083l-3.6321793,3.6329956    C64.8378754,38.1288795,64.300621,38.3336258,63.7641907,38.3336258z"></path>
    </g>
    <g>
      <path d="M69.4651108,52.0965881c-1.1572189,0-2.0965881-0.9385529-2.0965881-2.0965881    c0-1.1572189,0.9385529-2.0965919,2.0965881-2.0965919l5.1366425-0.0008163c1.1572189,0,2.0965881,0.938549,2.0965881,2.0965881    c0,1.1572189-0.9385529,2.0965881-2.0965881,2.0965881L69.4651108,52.0965881z"></path>
    </g>
    <g>
      <path d="M67.3963699,69.4917297c-0.536438,0-1.0728683-0.2047501-1.4823608-0.6142349l-3.6329918-3.6321793    c-0.8189812-0.818161-0.8189812-2.1457291,0-2.9647102c0.8173409-0.8189812,2.1457253-0.8189812,2.9647102,0l3.6329956,3.6321754    c0.8189774,0.818161,0.8189774,2.1457291,0,2.9647141C68.470047,69.2869797,67.9328003,69.4917297,67.3963699,69.4917297z"></path>
    </g>
    <g>
      <path d="M50.0012283,76.6979294c-1.1580391,0-2.0965881-0.9385452-2.0965881-2.0965881v-5.1374588    c0-1.1580429,0.938549-2.0965881,2.0965881-2.0965881s2.0965881,0.9385452,2.0965881,2.0965881v5.1374588    C52.0978165,75.7593842,51.1592674,76.6979294,50.0012283,76.6979294z"></path>
    </g>
    <g>
      <path d="M32.604454,69.4925461c-0.5364342,0-1.0728664-0.2047424-1.4823551-0.6142349    c-0.8189812-0.818985-0.8189812-2.1457291,0-2.9647064l3.6329937-3.6329994c0.8189812-0.8189812,2.1457291-0.8189812,2.9647102,0    s0.8189812,2.1457253,0,2.9647102l-3.6329956,3.6329956C33.6773148,69.2878036,33.1408844,69.4925461,32.604454,69.4925461z"></path>
    </g>
    <g>
      <path d="M25.3982468,52.0965881c-1.1572189,0-2.09659-0.9385529-2.09659-2.0965881    c0-1.1572189,0.9385509-2.0965919,2.09659-2.0965919l5.1382809-0.0008163c1.1572189,0,2.09659,0.938549,2.09659,2.0965881    c0,1.1572189-0.9385529,2.0965881-2.09659,2.0965881L25.3982468,52.0965881z"></path>
    </g>
    <g>
      <path d="M36.238266,38.3328056c-0.5364304,0-1.0728645-0.2047424-1.4823532-0.6134148l-3.6338139-3.6321754    c-0.8189812-0.8189812-0.8189812-2.1465473-0.0008202-2.9655285c0.8189812-0.8189793,2.1465473-0.818161,2.9655285-0.0008183    l3.6338158,3.6321754c0.8189774,0.8189812,0.8189774,2.1465492,0.0008163,2.9655266    C37.3119507,38.1280632,36.7747002,38.3328056,36.238266,38.3328056z"></path>
    </g>
  </g>
</svg>
